HIERARCHY
ROOT root
{
	OFFSET 0.000000 0.000000 0.000000
	CHANNELS 6 Xposition Yposition Zposition Zrotation Yrotation Xrotation
	JOINT lhip
	{
		OFFSET 0.058581 -0.082280 -0.017664
		CHANNELS 3 Zrotation Yrotation Xrotation
		JOINT lknee
		{
			OFFSET 0.043451 -0.386469 0.008037
			CHANNELS 3 Zrotation Yrotation Xrotation
			JOINT lankle
			{
				OFFSET -0.014790 -0.426874 -0.037428
				CHANNELS 3 Zrotation Yrotation Xrotation
				JOINT ltoe
				{
					OFFSET 0.041054 -0.060286 0.122042
					CHANNELS 3 Zrotation Yrotation Xrotation
					End Site
					{
						OFFSET 0.000000 0.000000 0.000000
					}
				}
			}
		}
	}
	JOINT rhip
	{
		OFFSET -0.060310 -0.090513 -0.013543
		CHANNELS 3 Zrotation Yrotation Xrotation
		JOINT rknee
		{
			OFFSET -0.043257 -0.383688 -0.004843
			CHANNELS 3 Zrotation Yrotation Xrotation
			JOINT rankle
			{
				OFFSET 0.019056 -0.420046 -0.034562
				CHANNELS 3 Zrotation Yrotation Xrotation
				JOINT rtoe
				{
					OFFSET -0.034840 -0.062106 0.130323
					CHANNELS 3 Zrotation Yrotation Xrotation
					End Site
					{
						OFFSET 0.000000 0.000000 0.000000
					}
				}
			}
		}
	}
	JOINT lowerback
	{
		OFFSET 0.004439 0.124404 -0.038385
		CHANNELS 3 Zrotation Yrotation Xrotation
		JOINT upperback
		{
			OFFSET 0.004488 0.137956 0.026820
			CHANNELS 3 Zrotation Yrotation Xrotation
			JOINT chest
			{
				OFFSET -0.002265 0.056032 0.002855
				CHANNELS 3 Zrotation Yrotation Xrotation
				JOINT lowerneck
				{
					OFFSET -0.013390 0.211636 -0.033468
					CHANNELS 3 Zrotation Yrotation Xrotation
					JOINT upperneck
					{
						OFFSET 0.010113 0.088937 0.050410
						CHANNELS 3 Zrotation Yrotation Xrotation
						End Site
						{
							OFFSET 0.000000 0.000000 0.000000
						}
					}
				}
				JOINT lclavicle
				{
					OFFSET 0.071702 0.114000 -0.018898
					CHANNELS 3 Zrotation Yrotation Xrotation
					JOINT lshoulder
					{
						OFFSET 0.122921 0.045205 -0.019046
						CHANNELS 3 Zrotation Yrotation Xrotation
						JOINT lelbow
						{
							OFFSET 0.255332 -0.015649 -0.022946
							CHANNELS 3 Zrotation Yrotation Xrotation
							JOINT lwrist
							{
								OFFSET 0.265709 0.012698 -0.007375
								CHANNELS 3 Zrotation Yrotation Xrotation
								End Site
								{
									OFFSET 0.000000 0.000000 0.000000
								}
							}
						}
					}
				}
				JOINT rclavicle
				{
					OFFSET -0.082954 0.112472 -0.023707
					CHANNELS 3 Zrotation Yrotation Xrotation
					JOINT rshoulder
					{
						OFFSET -0.113228 0.046853 -0.008472
						CHANNELS 3 Zrotation Yrotation Xrotation
						JOINT relbow
						{
							OFFSET -0.260127 -0.014369 -0.031269
							CHANNELS 3 Zrotation Yrotation Xrotation
							JOINT rwrist
							{
								OFFSET -0.269108 0.006794 -0.006027
								CHANNELS 3 Zrotation Yrotation Xrotation
								End Site
								{
									OFFSET 0.000000 0.000000 0.000000
								}
							}
						}
					}
				}
			}
		}
	}
}
MOTION
Frames: 8
Frame Time: 0.033333
0.797982 0.859433 0.967592 6.497088 1.439125 89.308036 -0.132110 0.979580 9.970623 -5.425324 -12.098115 11.395662 3.672254 10.755600 -24.898203 0.000000 -0.000000 0.000000 -1.584944 1.125789 -28.203481 -0.066295 -9.344986 14.501176 7.333415 -8.814852 -7.615805 0.000000 -0.000000 0.000000 -0.164331 -5.536714 15.566775 1.002599 -0.334353 -1.301166 0.042537 -0.975646 3.934209 1.352544 2.595665 -5.086222 -0.157006 -4.024195 14.104212 -23.194747 2.035871 0.023602 -58.242210 -15.863454 10.294816 11.763656 -34.343724 -6.068336 2.344519 -9.910999 -17.674702 25.573463 -0.199440 -0.339032 58.450957 5.752747 14.625851 -8.971753 21.621563 -9.939093 4.636900 3.917406 -15.810733 
0.796439 0.841519 0.963346 6.332634 1.398634 90.596328 0.072394 0.972527 9.991434 -5.380025 -11.997222 10.836793 3.062242 10.787841 -25.004910 0.000000 -0.000000 0.000000 -0.829573 1.147442 -29.294957 -0.350861 -8.981773 10.031756 7.491420 -8.255270 -8.940423 0.000000 -0.000000 0.000000 -0.220452 -5.748176 15.476512 0.641676 -0.666238 -1.638021 -0.026047 -1.065910 4.196217 1.219017 2.625757 -4.911368 0.414882 -4.695121 14.406453 -22.469097 1.356331 0.346763 -58.456352 -16.695439 10.520939 12.505760 -34.912909 -6.110305 2.746059 -9.551541 -17.189848 25.454215 -0.211484 -0.053992 59.019049 5.376354 14.711044 -9.524666 22.920410 -9.632644 4.199675 3.984343 -16.072241 
0.793953 0.820325 0.959472 6.740129 1.235506 91.339178 0.788476 1.512987 10.480988 -5.739137 -12.177947 10.879576 2.639146 10.105999 -24.998018 0.000000 -0.000000 0.000000 -0.204044 0.644918 -29.824189 -0.431081 -8.399008 8.266930 7.395193 -8.188118 -9.956990 0.000000 -0.000000 0.000000 -0.694369 -5.900413 15.687088 0.654744 -1.163410 -1.525089 -0.008077 -1.553037 4.460625 1.252060 2.731268 -5.287750 0.296647 -4.922271 14.328356 -22.234590 0.966413 0.099374 -58.171166 -17.448128 10.423913 12.002688 -35.118081 -6.117763 3.558023 -9.961949 -17.623664 25.370423 -0.478670 -0.144934 59.207364 5.196690 14.905778 -9.491290 23.827051 -8.807447 3.996087 4.205669 -16.048666 
0.791683 0.791553 0.956438 7.552602 0.947393 92.368749 1.213778 1.232441 11.098045 -5.872657 -13.066712 10.987661 2.343486 9.815459 -24.527247 0.000000 -0.000000 0.000000 -0.502381 0.897086 -31.148311 -0.241984 -8.331298 10.518041 7.286971 -8.273237 -6.502890 0.000000 -0.000000 0.000000 -0.977701 -6.781525 16.001032 0.707616 -1.692395 -1.089327 -0.199380 -2.056299 4.414093 0.350948 2.580491 -6.066642 0.527102 -5.063822 13.523579 -21.825391 0.559447 -0.100983 -57.977091 -18.035676 10.509637 12.260164 -35.278931 -6.178428 3.311641 -10.024873 -18.087791 24.941068 -0.337013 -0.022575 59.381898 5.296844 14.964637 -9.313962 23.986648 -8.569513 4.231046 4.213395 -16.485602 
0.789303 0.772588 0.956093 7.771163 1.112568 93.055170 1.583958 0.772083 11.237537 -5.797843 -13.360933 11.622586 2.083777 9.978486 -24.124801 0.000000 -0.000000 0.000000 -0.345776 1.749920 -31.740879 -0.311552 -8.389556 11.968684 6.660696 -8.695828 -4.697921 0.000000 -0.000000 0.000000 -1.041064 -7.195131 16.077350 0.900022 -1.643750 -0.778901 -0.126172 -2.197464 4.362702 0.544735 2.448254 -6.533813 0.326252 -4.663719 13.204377 -21.945180 0.215734 -0.054282 -57.714419 -18.380003 10.450578 12.367353 -35.187174 -6.245167 2.485107 -10.037576 -17.877951 24.840932 -0.421411 -0.173750 59.432735 5.203782 14.892263 -9.985531 23.657398 -8.967071 5.114386 4.154196 -16.590317 
0.785786 0.743224 0.957382 8.712405 1.219740 93.386031 2.330628 0.392408 11.419802 -6.013690 -13.919604 13.811078 1.361112 9.642644 -23.326042 0.000000 -0.000000 0.000000 -0.070373 1.494310 -31.263185 -0.195838 -8.871934 13.520943 5.964345 -8.998033 -2.863897 0.000000 -0.000000 0.000000 -1.165960 -7.751547 16.383134 1.193393 -2.014399 -0.202600 -0.009542 -2.315988 4.091017 -0.297452 1.880992 -7.204044 0.391747 -4.847176 12.527537 -22.088137 -0.478711 0.514290 -57.210688 -18.319985 10.287147 12.310872 -34.978188 -6.046505 2.168456 -10.181362 -18.115627 24.768637 0.146288 -0.160535 58.672036 4.752935 14.522142 -9.143032 22.719490 -8.806495 5.168002 4.229663 -16.839176 
0.781536 0.711731 0.960774 8.836896 1.522988 93.871440 3.113025 0.027715 10.768515 -6.353775 -14.085339 17.288411 -0.103150 8.964166 -21.125619 0.000000 -0.000000 0.000000 0.595672 2.059509 -30.336339 -0.062116 -9.037963 14.268101 4.630314 -9.700659 -2.648788 0.000000 -0.000000 0.000000 -1.016832 -7.647632 16.140419 1.319599 -2.220197 0.316461 -0.054686 -2.409662 3.790136 -0.969334 1.442214 -7.542444 0.357367 -5.469630 11.951325 -21.736414 -0.857889 1.125933 -57.258658 -17.865927 10.458225 12.033759 -34.665814 -5.411278 1.815454 -9.977205 -18.002241 25.006205 0.593965 0.245926 58.330649 4.667155 13.926515 -9.388491 21.275412 -9.221799 4.881139 3.946868 -16.750994 
0.777790 0.679292 0.966617 8.656382 1.667613 94.320691 3.356392 -0.469533 8.839393 -6.890798 -13.957153 22.868424 -1.786082 8.378095 -17.565859 0.000000 -0.000000 0.000000 1.280872 2.719041 -29.170261 0.246471 -8.280115 14.910439 3.032115 -9.913508 -3.782639 0.000000 -0.000000 0.000000 -1.125726 -7.500753 15.797982 1.466370 -2.346315 0.600781 -0.122491 -2.319640 3.706995 -1.103023 1.344708 -7.610902 -0.157932 -5.400563 11.589787 -21.865187 -0.825162 1.046178 -56.901059 -17.211698 10.679301 10.944724 -33.667552 -4.325750 0.905548 -9.986525 -17.625792 25.054605 0.993785 0.434660 57.921178 4.933708 13.608032 -9.093937 19.321762 -9.287395 5.258640 3.795734 -16.968976 
